<?xml version="1.0" standalone="no"?>
<!DOCTYPE svg PUBLIC "-//W3C//DTD SVG 20010904//EN"
 "http://www.w3.org/TR/2001/REC-SVG-20010904/DTD/svg10.dtd">
<svg version="1.0" xmlns="http://www.w3.org/2000/svg"
 width="1024.000000pt" height="1024.000000pt" viewBox="0 0 1024.000000 1024.000000"
 preserveAspectRatio="xMidYMid meet">
<metadata>
Created by potrace 1.16, written by Peter Selinger 2001-2019
</metadata>
<g transform="translate(0.000000,1024.000000) scale(0.100000,-0.100000)"
fill="#000000" stroke="none">
<path d="M820 10205 c-368 -74 -674 -362 -772 -725 l-23 -85 0 -4275 0 -4275
23 -85 c91 -339 373 -621 712 -712 l85 -23 4275 0 4275 0 85 23 c196 52 396
183 523 342 79 99 158 252 187 364 20 80 20 85 20 4366 0 4281 0 4286 -20
4366 -29 112 -108 265 -187 364 -125 156 -322 286 -518 342 l-80 23 -4260 2
c-3473 1 -4272 -1 -4325 -12z m4313 -1943 c-1 -77 -4 -145 -7 -151 -5 -7 -54
-11 -136 -11 -82 0 -131 4 -136 11 -3 6 -6 74 -7 152 l0 142 124 5 c68 3 133
2 143 -1 18 -5 19 -16 19 -147z m-552 41 c5 -52 3 -136 -2 -145 -4 -6 -22 -12
-41 -14 -18 -1 -53 -10 -78 -19 -25 -9 -87 -20 -137 -24 -67 -6 -98 -13 -112
-26 -11 -9 -42 -19 -68 -22 -26 -2 -64 -13 -83 -23 -20 -10 -59 -22 -89 -26
-30 -4 -60 -14 -69 -25 -10 -9 -35 -21 -57 -25 -22 -4 -56 -18 -75 -30 -19
-13 -46 -24 -61 -24 -14 0 -34 -9 -43 -19 -10 -11 -31 -23 -47 -26 -15 -4 -39
-15 -52 -25 -13 -10 -36 -22 -51 -26 -14 -3 -31 -14 -36 -24 -5 -10 -23 -21
-39 -25 -15 -3 -38 -15 -49 -25 -12 -11 -28 -20 -37 -20 -8 0 -25 -11 -37 -25
-21 -24 -25 -25 -160 -25 -76 0 -138 3 -138 8 0 4 26 22 59 40 32 17 64 39 71
47 7 8 18 15 25 15 7 0 16 7 19 15 3 9 23 23 43 31 21 9 46 25 56 35 10 10 27
19 37 19 11 0 20 4 20 9 0 5 24 21 53 35 30 14 60 32 67 41 7 8 21 15 32 15
11 0 34 11 52 25 18 14 45 25 59 25 14 0 34 9 44 19 10 11 32 23 48 26 17 4
44 16 60 26 17 10 51 21 75 25 25 3 50 12 56 20 15 18 59 34 97 34 18 0 47 9
66 21 19 12 59 23 90 26 31 2 74 13 96 23 22 10 88 24 147 31 59 6 117 17 130
24 26 15 58 19 59 8z m869 -8 c12 -11 59 -20 144 -29 89 -9 131 -18 144 -29
11 -10 35 -17 59 -17 22 0 69 -11 104 -24 35 -13 84 -27 109 -31 25 -4 54 -15
65 -25 11 -9 39 -20 62 -23 23 -3 55 -14 72 -26 16 -12 41 -21 55 -21 14 0 37
-11 52 -25 15 -14 37 -25 50 -25 12 0 36 -11 52 -25 17 -14 39 -25 50 -25 12
0 33 -11 48 -25 15 -14 35 -25 44 -25 10 0 30 -10 45 -22 30 -24 70 -47 121
-72 17 -8 36 -21 42 -28 6 -8 49 -38 96 -68 80 -52 101 -76 63 -74 -9 0 -69 1
-132 2 -102 2 -117 4 -132 22 -10 11 -25 20 -35 20 -10 0 -27 9 -38 20 -11 11
-38 27 -59 36 -22 9 -42 22 -45 30 -3 8 -13 14 -21 14 -9 0 -31 11 -48 24 -18
13 -47 27 -65 31 -18 4 -38 15 -45 26 -6 10 -21 19 -33 19 -21 0 -120 40 -194
79 -19 10 -55 22 -80 26 -25 4 -59 15 -75 24 -17 10 -52 21 -79 24 -26 4 -59
16 -73 27 -18 14 -41 20 -78 20 -67 0 -164 18 -191 35 -12 8 -39 15 -60 17
l-39 3 -2 65 c-1 36 0 71 2 78 6 16 25 15 45 -3z m-2642 -995 c4 -184 16 -170
-134 -164 -85 4 -129 2 -139 -6 -9 -8 -15 -8 -20 0 -5 8 -10 244 -6 285 1 7
54 11 149 10 l147 0 3 -125z m4554 117 c10 -9 12 -45 10 -153 l-3 -142 -38 9
c-21 5 -83 7 -139 5 -68 -2 -105 0 -109 8 -10 16 -12 259 -2 272 12 15 264 16
281 1z m-4926 -572 c-9 -7 -16 -21 -16 -32 0 -11 -9 -32 -20 -46 -11 -14 -27
-42 -35 -61 -9 -20 -19 -36 -24 -36 -5 0 -18 -17 -28 -37 -11 -21 -28 -54 -38
-73 -10 -19 -27 -46 -37 -59 -10 -13 -18 -33 -18 -45 0 -12 -11 -37 -24 -56
-12 -19 -26 -52 -30 -72 -4 -21 -14 -41 -22 -46 -8 -5 -20 -28 -25 -53 -5 -24
-19 -56 -29 -71 -11 -15 -20 -42 -20 -60 0 -18 -12 -55 -25 -83 -14 -27 -25
-62 -25 -76 0 -14 -11 -48 -25 -75 -20 -39 -25 -64 -25 -122 0 -53 -5 -82 -20
-109 -11 -21 -20 -52 -20 -70 0 -17 -5 -35 -10 -38 -6 -4 -41 -7 -78 -8 -79
-1 -86 8 -53 76 16 32 21 63 21 118 0 45 5 82 13 94 15 23 37 113 37 154 0 15
11 42 25 61 18 25 25 47 25 80 0 26 7 56 16 69 9 12 22 45 29 73 8 27 21 58
29 67 9 10 16 24 16 32 0 8 14 41 30 74 16 33 30 68 30 77 0 10 8 25 19 35 10
10 22 29 26 43 4 14 15 36 25 50 10 14 20 35 24 46 4 12 15 29 26 39 11 10 20
24 20 31 0 8 16 38 36 67 l36 53 90 1 c73 0 88 -3 74 -12z m5317 -55 c15 -21
27 -45 27 -53 0 -9 11 -29 25 -45 14 -17 25 -36 25 -44 0 -8 9 -25 20 -37 10
-13 24 -39 31 -58 6 -20 20 -44 30 -54 11 -11 19 -27 19 -36 0 -10 12 -40 25
-68 14 -27 25 -57 25 -66 0 -8 11 -30 25 -49 14 -19 25 -44 25 -57 0 -13 9
-42 20 -63 11 -22 23 -61 26 -87 4 -27 15 -61 24 -78 10 -16 23 -58 29 -92 7
-34 18 -83 26 -110 7 -26 17 -86 21 -131 4 -56 11 -85 20 -89 8 -3 14 -16 14
-28 0 -21 -5 -24 -62 -27 -81 -5 -98 3 -98 47 0 19 -9 52 -20 72 -13 24 -20
57 -20 92 0 32 -10 81 -25 123 -14 38 -25 81 -25 95 0 13 -9 36 -19 49 -11 13
-22 47 -26 76 -4 28 -18 74 -31 102 -13 28 -24 60 -24 72 0 11 -9 29 -20 39
-11 10 -20 22 -20 27 0 12 -57 147 -71 168 -5 8 -21 38 -35 65 -14 28 -36 68
-49 90 -13 22 -32 54 -41 70 -9 17 -28 43 -41 59 -38 46 -28 60 47 66 86 7 90
5 123 -40z m-2498 -639 c3 -6 27 -13 53 -16 26 -4 60 -16 76 -27 16 -12 49
-23 73 -26 51 -5 61 -16 39 -41 -8 -9 -21 -41 -28 -71 -6 -30 -20 -66 -30 -79
-10 -13 -18 -37 -18 -53 0 -16 -9 -46 -20 -68 -11 -22 -25 -62 -31 -90 -6 -28
-18 -57 -26 -65 -8 -9 -17 -35 -20 -58 -3 -23 -16 -63 -29 -89 -13 -26 -24
-60 -24 -76 0 -16 -9 -41 -20 -54 -10 -14 -22 -45 -26 -69 -4 -24 -17 -65 -30
-91 -13 -26 -24 -61 -24 -77 0 -16 -7 -37 -16 -46 -9 -9 -23 -46 -31 -83 -7
-36 -21 -74 -29 -83 -9 -10 -18 -37 -21 -61 -3 -24 -11 -50 -19 -58 -7 -8 -20
-47 -29 -87 -9 -39 -22 -74 -29 -76 -7 -3 -16 -26 -19 -51 -4 -25 -15 -63 -26
-84 -10 -20 -22 -56 -26 -79 -3 -23 -15 -53 -26 -67 -10 -13 -19 -39 -19 -56
0 -18 -9 -47 -20 -65 -11 -18 -25 -56 -30 -86 -6 -29 -17 -60 -25 -69 -8 -9
-15 -24 -15 -34 0 -24 -28 -31 -48 -13 -10 9 -39 21 -65 27 -26 5 -64 19 -85
30 -20 11 -45 20 -55 20 -10 0 -20 7 -23 15 -7 18 14 77 32 87 7 5 15 31 19
59 4 29 15 66 25 83 10 17 22 53 25 79 4 27 15 56 25 65 9 9 20 37 24 60 4 24
15 60 25 80 10 21 22 56 26 79 3 23 15 53 26 67 10 13 19 37 19 53 0 15 11 51
24 78 12 28 26 68 30 90 4 22 14 47 22 56 8 8 18 39 24 68 5 30 19 68 30 86
11 18 20 48 20 67 0 20 9 46 21 61 11 15 24 49 28 77 5 28 18 64 30 80 13 18
21 44 21 68 0 24 7 47 19 61 10 11 24 48 30 81 7 33 19 66 27 75 8 8 19 37 23
64 4 28 13 56 19 63 5 7 18 42 27 78 9 36 23 72 31 81 8 9 17 39 21 68 5 40
10 51 24 51 10 0 20 -4 24 -9z m-1139 -508 c21 -32 44 -62 51 -66 7 -4 13 -13
13 -19 0 -6 14 -26 30 -45 35 -40 30 -62 -23 -89 -18 -9 -35 -22 -39 -29 -4
-6 -35 -29 -69 -50 -34 -21 -69 -44 -78 -52 -64 -54 -91 -73 -105 -73 -9 0
-19 -7 -23 -15 -3 -9 -22 -25 -43 -35 -32 -16 -39 -26 -45 -60 -7 -40 5 -70
27 -70 8 0 96 -68 158 -123 14 -12 30 -24 37 -27 6 -3 33 -24 60 -47 26 -23
76 -65 111 -93 34 -29 62 -57 62 -64 0 -7 -10 -25 -22 -40 -31 -36 -61 -73
-105 -128 -21 -27 -44 -48 -50 -48 -16 0 -103 66 -121 91 -7 11 -19 19 -25 19
-7 0 -34 20 -61 45 -27 25 -51 45 -54 45 -4 0 -34 25 -97 79 -11 9 -44 34 -72
55 -29 21 -53 42 -53 47 0 4 -12 15 -27 23 -16 8 -44 30 -63 48 -19 19 -52 44
-72 57 -21 12 -38 27 -38 32 0 5 -7 9 -15 9 -9 0 -18 7 -22 15 -3 9 -25 29
-49 46 -51 35 -54 46 -17 60 15 6 34 17 43 25 26 25 92 74 100 74 4 0 19 10
33 23 14 12 42 33 62 47 20 14 51 36 70 50 19 14 49 35 67 48 79 56 184 132
199 145 9 8 42 31 75 52 32 22 74 52 92 67 18 15 39 28 46 28 7 0 30 -26 52
-57z m1860 12 c3 -8 16 -17 27 -21 12 -3 30 -13 40 -22 9 -8 25 -20 36 -26 32
-19 145 -104 167 -125 12 -12 25 -21 30 -21 6 0 25 -13 44 -30 19 -16 41 -29
48 -30 7 0 15 -7 18 -15 3 -8 15 -17 25 -20 11 -4 47 -29 79 -56 33 -27 63
-49 68 -49 5 0 22 -12 39 -27 17 -16 49 -39 72 -53 52 -32 57 -47 25 -73 -14
-12 -35 -30 -45 -39 -10 -10 -22 -18 -25 -18 -7 0 -58 -40 -112 -88 -20 -19
-53 -46 -72 -60 -19 -15 -42 -34 -51 -42 -9 -8 -33 -26 -54 -40 -20 -14 -62
-49 -93 -77 -31 -29 -60 -53 -64 -53 -4 0 -18 -10 -31 -22 -14 -13 -41 -34
-61 -48 -19 -14 -62 -49 -93 -77 -32 -29 -65 -53 -73 -53 -13 0 -80 70 -80 83
0 2 -16 22 -36 43 -61 66 -69 81 -54 108 7 13 20 28 30 32 17 8 135 105 212
174 15 14 44 36 64 50 19 14 49 37 64 52 16 14 38 29 49 33 12 3 24 17 27 31
11 43 -4 72 -49 95 -23 12 -46 28 -50 35 -4 8 -12 14 -17 14 -10 0 -90 58
-116 85 -9 8 -19 15 -23 15 -7 0 -26 13 -106 76 -11 9 -35 24 -52 35 -35 20
-45 61 -19 76 8 4 22 22 32 39 35 57 57 89 87 121 29 31 31 31 59 17 16 -8 31
-21 34 -29z m-4061 -545 l0 -143 -147 -1 c-115 -1 -149 2 -153 12 -9 24 -5
258 5 268 5 5 73 8 152 8 l143 -2 0 -142z m6443 141 c10 -1 12 -33 10 -143
l-3 -142 -142 1 c-78 1 -146 4 -152 8 -14 8 -15 257 -1 271 7 7 196 10 288 5z
m-6435 -631 c4 -40 15 -91 24 -114 9 -23 18 -75 22 -117 4 -52 12 -83 23 -96
10 -11 20 -33 22 -49 3 -16 8 -45 11 -65 3 -20 14 -47 25 -59 14 -16 20 -38
20 -68 0 -33 7 -54 25 -78 14 -18 25 -44 25 -58 0 -14 9 -35 20 -46 11 -11 23
-32 26 -47 4 -16 18 -48 31 -72 12 -24 23 -52 23 -62 0 -10 6 -22 14 -26 8 -4
21 -24 30 -43 23 -51 64 -121 81 -140 8 -9 15 -21 15 -27 0 -5 14 -29 31 -52
17 -24 28 -49 25 -57 -7 -18 -145 -20 -168 -1 -25 20 -48 60 -48 84 0 12 -8
28 -18 35 -10 7 -36 49 -57 93 -22 44 -43 83 -48 86 -4 3 -15 28 -23 54 -8 27
-21 56 -29 66 -9 9 -19 34 -22 55 -4 22 -12 44 -20 49 -7 6 -21 37 -29 70 -9
33 -22 67 -29 75 -7 8 -15 39 -17 68 -3 29 -13 60 -22 71 -10 11 -21 49 -27
87 -5 38 -18 86 -29 107 -15 28 -20 57 -20 117 0 63 -5 93 -27 144 -34 83 -28
91 64 90 l68 -1 8 -73z m6295 57 c2 -9 -5 -29 -16 -44 -15 -21 -21 -53 -27
-132 -4 -58 -16 -128 -25 -157 -10 -29 -22 -78 -25 -109 -4 -31 -14 -63 -23
-72 -9 -8 -19 -41 -24 -73 -4 -32 -16 -73 -27 -91 -10 -19 -22 -53 -26 -77 -4
-26 -14 -46 -26 -52 -12 -7 -19 -21 -19 -39 0 -15 -11 -45 -25 -65 -14 -20
-25 -47 -25 -60 0 -13 -9 -34 -19 -48 -11 -13 -23 -36 -26 -50 -4 -15 -18 -36
-31 -49 -13 -12 -24 -33 -24 -45 0 -13 -8 -29 -18 -36 -10 -7 -24 -28 -30 -45
-6 -18 -23 -48 -37 -67 -25 -33 -29 -35 -93 -35 -83 0 -101 8 -84 41 16 29 56
87 76 111 9 9 16 23 16 31 0 7 14 30 30 51 17 21 30 46 30 56 0 11 9 28 19 38
11 11 25 38 31 59 5 22 16 45 24 51 7 6 16 29 20 50 3 20 15 46 26 56 11 10
20 27 20 38 0 11 11 45 24 76 14 31 27 73 31 93 3 21 13 41 21 46 9 5 19 34
25 77 5 38 17 83 25 99 9 17 20 71 25 120 6 58 14 95 25 107 11 12 17 41 19
85 2 37 8 69 13 73 6 3 41 6 79 5 55 -1 69 -4 71 -17z m-5416 -1625 c5 -5 7
-69 6 -142 l-3 -134 -147 0 c-125 -1 -148 1 -149 14 -5 60 -3 248 2 260 6 12
31 15 144 13 76 -1 142 -6 147 -11z m4564 -4 c7 -11 6 -259 -1 -267 -3 -2 -66
-4 -141 -4 -106 0 -138 3 -144 14 -6 11 -7 229 -1 262 2 12 279 8 287 -5z
m-4053 -574 c16 -13 35 -24 42 -24 8 0 18 -7 22 -15 5 -8 44 -33 87 -55 44
-22 86 -46 95 -53 9 -8 37 -21 63 -31 26 -10 50 -22 53 -27 4 -5 17 -9 30 -9
13 0 37 -11 53 -25 17 -14 40 -25 53 -25 13 0 42 -11 65 -24 22 -12 59 -25 81
-28 23 -3 54 -15 69 -26 16 -11 52 -22 81 -25 28 -3 70 -15 92 -26 22 -12 58
-21 81 -21 22 0 66 -9 97 -20 31 -11 86 -23 122 -26 36 -4 71 -10 76 -14 6 -5
10 -39 9 -77 l0 -68 -54 2 c-29 2 -60 9 -69 17 -10 8 -49 15 -102 19 -49 2
-98 11 -116 21 -17 8 -64 21 -105 27 -45 7 -81 18 -94 30 -13 12 -35 19 -60
19 -22 0 -54 9 -72 20 -19 12 -57 25 -85 31 -28 5 -60 18 -72 29 -12 11 -33
20 -47 20 -14 0 -31 7 -38 14 -6 8 -35 23 -63 32 -29 9 -60 25 -70 35 -10 11
-24 19 -32 19 -20 0 -135 61 -157 83 -10 9 -24 17 -32 17 -8 0 -27 10 -43 23
-15 12 -35 27 -44 32 -66 41 -105 70 -112 81 -4 8 -13 14 -20 14 -16 0 -87 48
-87 59 0 5 62 6 138 3 125 -4 139 -7 165 -28z m3647 23 c0 -7 -10 -19 -22 -25
-24 -13 -30 -16 -117 -75 -117 -79 -162 -107 -170 -107 -4 0 -20 -11 -35 -25
-15 -14 -34 -25 -43 -25 -9 0 -31 -11 -49 -25 -18 -14 -41 -25 -52 -25 -10 0
-31 -11 -46 -25 -15 -14 -36 -25 -47 -25 -11 0 -37 -11 -57 -25 -20 -14 -48
-25 -62 -25 -14 0 -33 -9 -42 -19 -9 -10 -36 -22 -60 -26 -23 -4 -57 -16 -75
-26 -17 -11 -56 -23 -85 -26 -29 -3 -64 -14 -78 -24 -14 -10 -56 -23 -93 -28
-38 -5 -79 -17 -92 -25 -14 -10 -60 -18 -112 -22 -48 -4 -97 -13 -109 -20 -11
-8 -42 -15 -69 -16 l-49 -3 0 68 c-1 38 4 72 9 77 6 4 41 10 80 14 42 4 77 13
88 23 12 12 44 19 101 22 46 3 90 12 98 18 8 7 46 20 84 28 38 9 76 23 85 31
8 8 38 17 65 20 27 4 61 15 75 25 14 10 45 23 69 28 24 5 47 17 52 25 5 8 25
18 46 22 20 3 47 15 59 26 11 11 40 22 63 25 23 3 44 12 47 20 3 8 24 24 47
35 61 29 105 54 124 71 9 8 34 22 55 30 20 9 37 20 37 26 0 13 18 16 158 19
100 3 122 1 122 -11z m-1827 -592 l-1 -150 -137 -3 c-142 -3 -178 5 -154 34 7
8 10 55 8 131 -2 65 0 124 5 131 6 9 42 12 143 10 l136 -3 0 -150z"/>
</g>
</svg>
