<!-- logo.svg -->
<svg version="1.0" xmlns="http://www.w3.org/2000/svg" width="828.000000pt" height="547.000000pt" viewBox="0 0 828.000000 547.000000"
  preserveAspectRatio="xMidYMid meet">
  <metadata>
    Created by potrace 1.16, written by Peter Selinger 2001-2019
  </metadata>
  <g transform="translate(0.000000,547.000000) scale(0.100000,-0.100000)" fill="#000000" stroke="none">
    <path d="M0 2735 l0 -2735 4140 0 4140 0 0 2735 0 2735 -4140 0 -4140 0 0
-2735z m3392 258 l228 -228 0 188 c0 160 2 187 15 187 13 0 15 -32 15 -226 0
-124 -3 -224 -7 -222 -13 5 -513 514 -513 521 0 31 67 -25 262 -220z m333
-153 l0 -375 -30 -3 c-27 -2 -51 19 -250 218 -121 121 -226 220 -233 220 -10
0 -12 -42 -10 -197 3 -179 5 -198 21 -201 16 -3 17 9 17 152 0 86 4 156 8 156
27 0 32 -30 32 -187 l0 -163 -55 0 -55 0 0 273 1 272 248 -252 c137 -139 253
-253 260 -253 8 0 11 93 11 340 l0 340 -55 0 -55 0 0 -155 c0 -85 -4 -155 -8
-155 -27 0 -32 30 -32 187 l0 164 93 -3 92 -3 0 -375z m588 354 c103 -36 175
-104 224 -211 23 -48 27 -72 28 -143 0 -80 -3 -92 -38 -162 -26 -53 -53 -90
-87 -120 l-50 -44 53 -84 c30 -47 66 -106 81 -132 l28 -48 -110 0 -110 0 -89
142 c-86 137 -91 142 -135 155 -25 7 -67 28 -94 45 -186 126 -163 416 41 521
55 28 168 35 230 14 129 -44 206 -151 206 -287 0 -64 -4 -83 -33 -139 -34 -66
-106 -135 -135 -129 -7 2 -25 22 -38 45 l-25 42 30 18 c80 47 112 161 70 248
-86 178 -360 115 -360 -82 0 -107 63 -179 169 -192 l44 -6 103 -160 c92 -143
101 -160 82 -163 -11 -2 -24 2 -29 10 -4 7 -45 72 -91 144 -79 125 -85 132
-121 138 -84 14 -147 65 -182 149 -61 147 77 323 239 302 125 -16 200 -100
201 -225 0 -53 -5 -73 -27 -112 -15 -25 -39 -55 -53 -65 -23 -16 -24 -20 -12
-37 13 -18 16 -17 52 19 102 103 108 262 14 369 -50 57 -100 84 -171 92 -148
17 -279 -92 -294 -246 -13 -120 74 -243 195 -276 l56 -16 90 -142 90 -141 63
-3 c40 -2 62 1 62 8 0 6 -32 61 -70 123 l-70 112 27 20 c65 47 95 81 125 143
29 59 33 76 33 152 0 71 -4 94 -26 140 -33 70 -95 132 -167 167 -49 24 -69 28
-142 28 -76 0 -93 -4 -152 -33 -73 -36 -124 -87 -160 -161 -27 -55 -36 -174
-18 -235 28 -98 127 -203 213 -227 39 -11 67 -32 67 -50 0 -12 -83 11 -132 38
-108 59 -184 177 -195 301 -22 268 246 475 500 386z m742 11 c111 -29 203
-114 247 -227 29 -75 28 -202 -2 -281 -29 -76 -113 -167 -188 -204 -55 -27
-63 -28 -244 -32 l-188 -3 0 347 0 347 178 -4 c146 -2 183 -6 213 -21 155 -77
226 -265 155 -410 -15 -31 -44 -73 -64 -94 -60 -62 -102 -77 -225 -83 l-107
-5 0 233 c0 198 2 232 15 232 12 0 15 -33 17 -212 l3 -213 80 1 c97 0 143 21
204 90 102 116 87 287 -33 390 -55 47 -89 54 -258 54 l-148 0 0 -305 0 -305
163 0 c162 0 164 0 224 30 70 35 135 101 166 168 33 72 31 207 -4 283 -35 73
-90 134 -153 167 -49 26 -58 27 -238 30 -178 3 -188 5 -188 23 0 18 9 19 158
19 109 0 176 -5 217 -15z m1240 -177 c81 -166 91 -195 82 -215 -10 -22 -17
-12 -80 119 -38 79 -79 167 -92 196 l-24 52 -60 0 c-34 0 -61 -3 -61 -6 0 -5
171 -362 258 -539 l50 -100 112 230 c62 127 136 281 166 343 l54 112 60 0 c33
0 60 -3 60 -7 0 -5 -40 -89 -88 -188 -49 -99 -130 -267 -182 -372 -71 -146
-98 -193 -112 -193 -10 0 -18 2 -18 4 0 8 82 181 214 449 69 141 126 259 126
262 0 3 -8 5 -18 5 -15 0 -57 -80 -192 -360 -96 -198 -177 -360 -182 -360 -6
0 -278 543 -278 556 0 2 -20 45 -45 95 -25 51 -45 96 -45 100 0 5 45 9 101 9
l100 0 94 -192z m358 176 c-1 -5 -65 -139 -143 -299 l-142 -290 -31 65 c-18
36 -76 154 -129 263 -89 181 -96 197 -75 197 19 0 37 -31 126 -215 57 -118
107 -215 111 -215 4 0 14 15 21 33 7 17 62 132 121 255 87 180 111 223 125
220 10 -2 17 -8 16 -14z m-1183 -349 l0 -355 210 0 210 0 0 55 0 55 -156 0
-155 0 3 47 c2 36 7 49 21 51 13 3 17 -3 17 -27 l0 -31 155 0 155 0 0 -95 0
-95 -245 0 -245 0 -2 375 c-3 352 -2 375 15 375 16 0 17 -24 17 -355z m450
265 l0 -90 -131 0 c-119 0 -130 2 -127 18 3 15 19 18 113 22 l110 5 0 50 0 50
-167 3 -168 2 0 -160 0 -160 125 0 c104 0 125 -2 125 -15 0 -13 -23 -15 -145
-15 l-145 0 0 190 0 190 205 0 205 0 0 -90z m-2272 -518 c3 -22 -48 24 -257
233 l-261 260 0 -318 c0 -275 -2 -317 -15 -317 -13 0 -15 47 -15 359 l0 359
273 -274 c200 -203 273 -282 275 -302z m2192 523 c0 -12 -19 -15 -110 -15
l-111 0 3 -87 3 -88 125 0 125 0 3 -93 3 -92 -166 0 -165 0 0 -90 0 -90 151 0
c131 0 150 -2 147 -16 -3 -13 -28 -15 -171 -17 l-167 -2 0 128 0 127 165 0
165 0 0 55 0 54 -127 3 -128 3 -3 118 -3 117 131 0 c109 0 130 -2 130 -15z
m-792 -70 c51 -22 81 -52 108 -110 41 -87 28 -183 -35 -256 -44 -52 -101 -78
-169 -79 -46 0 -53 3 -50 18 2 13 15 18 48 20 67 4 85 9 120 38 66 56 94 169
57 239 -19 39 -65 85 -95 96 -13 5 -75 9 -138 9 l-114 0 0 -250 c0 -218 -2
-249 -15 -244 -13 5 -15 45 -15 270 l0 264 130 0 c95 0 141 -4 168 -15z
m-2815 -54 c4 -4 -4 -38 -17 -77 -121 -341 -119 -338 -155 -315 -12 8 -8 26
23 113 21 56 52 147 69 200 28 87 34 97 52 92 11 -4 23 -9 28 -13z m-254 -93
c12 -20 11 -24 -11 -42 -13 -12 -35 -29 -48 -38 l-25 -17 23 -16 c67 -49 75
-60 61 -83 -8 -12 -17 -21 -22 -19 -4 1 -41 29 -81 61 l-74 59 47 36 c65 51
105 80 111 81 3 0 11 -10 19 -22z m479 -76 l23 -18 -77 -62 c-42 -34 -79 -62
-83 -62 -3 0 -12 10 -20 22 -14 23 -6 35 61 83 l23 16 -27 20 c-70 52 -70 52
-53 77 l16 22 57 -40 c31 -22 67 -48 80 -58z" />
  </g>
</svg>